<?xml version="1.0" encoding="UTF-8" standalone="no"?>
<!-- Created with Inkscape (http://www.inkscape.org/) -->

<svg
   xmlns:dc="http://purl.org/dc/elements/1.1/"
   xmlns:cc="http://creativecommons.org/ns#"
   xmlns:rdf="http://www.w3.org/1999/02/22-rdf-syntax-ns#"
   xmlns:svg="http://www.w3.org/2000/svg"
   xmlns="http://www.w3.org/2000/svg"
   xmlns:sodipodi="http://sodipodi.sourceforge.net/DTD/sodipodi-0.dtd"
   xmlns:inkscape="http://www.inkscape.org/namespaces/inkscape"
   width="210mm"
   height="297mm"
   viewBox="0 0 744.09448819 1052.3622047"
   id="svg2"
   version="1.1"
   inkscape:version="0.91 r13725"
   sodipodi:docname="steppy.svg">
  <defs
     id="defs4" />
  <sodipodi:namedview
     id="base"
     pagecolor="#ffffff"
     bordercolor="#666666"
     borderopacity="1.0"
     inkscape:pageopacity="0.0"
     inkscape:pageshadow="2"
     inkscape:zoom="1.4"
     inkscape:cx="468.24166"
     inkscape:cy="557.40849"
     inkscape:document-units="px"
     inkscape:current-layer="layer1"
     showgrid="false"
     inkscape:window-width="1920"
     inkscape:window-height="1024"
     inkscape:window-x="0"
     inkscape:window-y="0"
     inkscape:window-maximized="1" />
  <metadata
     id="metadata7">
    <rdf:RDF>
      <cc:Work
         rdf:about="">
        <dc:format>image/svg+xml</dc:format>
        <dc:type
           rdf:resource="http://purl.org/dc/dcmitype/StillImage" />
        <dc:title />
      </cc:Work>
    </rdf:RDF>
  </metadata>
  <g
     inkscape:label="Laag 1"
     inkscape:groupmode="layer"
     id="layer1">
    <path
       style="fill:#ffffff;fill-rule:evenodd;stroke:none;stroke-width:1px;stroke-linecap:butt;stroke-linejoin:miter;stroke-opacity:1"
       d="m 275,685.93363 -85,7.85715 -50,6.42857 -0.71429,15.71428 25.71429,18.57143 47.14286,2.85714 35.71428,-8.57142 29.28572,-23.57143 z"
       id="path4820"
       inkscape:connector-curvature="0" />
    <path
       style="fill:#ffffff;fill-rule:evenodd;stroke:none;stroke-width:1px;stroke-linecap:butt;stroke-linejoin:miter;stroke-opacity:1"
       d="m 505,683.79078 -5,17.14285 16.42857,13.57143 6.42857,12.85714 32.14286,-10 12.85714,0 20,9.28572 12.14286,17.14286 18.57143,2.14285 14.28571,-11.42857 -1.42857,-15 -2.14286,-12.14286 -15.71428,-17.85714 -35,-5.71428 -57.14286,-1.42858 z"
       id="path4822"
       inkscape:connector-curvature="0" />
    <path
       style="fill:#ffffff;fill-rule:evenodd;stroke:none;stroke-width:1px;stroke-linecap:butt;stroke-linejoin:miter;stroke-opacity:1"
       d="M 517.14286,443.07649 530,455.21935 l 14.28571,0.71428 32.85715,11.42857 22.85714,7.85715 12.85714,-6.42857 7.14286,-20 -2.14286,-11.42858 -9.28571,-8.57142 -39.28572,-8.57143 2.14286,-4.28572 16.42857,-8.57143 -4.28571,-14.28571 -11.42857,2.14286 -42.85715,23.57143 z"
       id="path4818"
       inkscape:connector-curvature="0" />
    <path
       style="fill:#ffffff;fill-rule:evenodd;stroke:none;stroke-width:1px;stroke-linecap:butt;stroke-linejoin:miter;stroke-opacity:1"
       d="m 190,417.3622 -33.57143,-5 -20,-12.85714 -7.85714,-14.28571 -16.42857,-3.57143 -1.42857,5 17.85714,25 L 84.285714,409.50506 65.714286,428.07649 75,455.21935 111.42857,467.3622 163.57143,460.93363 195,447.3622 Z"
       id="path4816"
       inkscape:connector-curvature="0" />
    <path
       style="fill:#ffd5d5;fill-rule:evenodd;stroke:none;stroke-width:1px;stroke-linecap:butt;stroke-linejoin:miter;stroke-opacity:1"
       d="m 289.54973,700.03433 219.2031,4.04061 c 0,0 57.68047,-4.94213 -16.16244,-28.28427 l 33.33503,-45.45686 -20.20305,-151.52288 c 0,0 18.18275,-30.30458 22.22336,-30.30458 36.04439,1.85875 3.03046,-31.31473 3.03046,-31.31473 l -30.30458,10.10153 -28.28427,-117.1777 37.37564,-49.49747 -29.29442,-23.23351 -51.51778,40.4061 -49.49748,-27.27412 c 0,0 -108.7097,34.14134 -108.08632,28.28427 1.42537,-13.39226 -44.52924,-53.60808 -51.51778,-42.42641 -15.21205,20.05043 3.09225,50.15578 13.13199,77.78175 l -18.18275,101.01526 c -18.17125,0.89259 -36.36714,-5.50481 -43.79075,1.47949 -18.95203,17.83048 11.08474,45.06867 36.1078,32.63021 l 17.78447,43.67204 -3.03045,125.25892 32.32488,72.73098 c -17.06898,-4.9182 -0.54471,38.99485 35.35534,9.09137 z"
       id="path4207"
       inkscape:connector-curvature="0"
       sodipodi:nodetypes="cccccccccccccscccsccccc" />
    <path
       style="fill:#ffffff;fill-rule:evenodd;stroke:none;stroke-width:1px;stroke-linecap:butt;stroke-linejoin:miter;stroke-opacity:1"
       d="m 270.35683,376.78552 -33.33503,-9.09137 -19.1929,26.26396 c 0,0 -11.11168,48.48732 -9.09138,52.52793 2.02031,4.04061 37.37565,47.47717 37.37565,47.47717 l 53.53808,28.28427 33.33504,-15.15228 34.34518,0 41.41626,-18.18275 26.26396,13.13198 34.34519,-16.16244 23.23351,-18.18274 c 0,0 -1.01015,-28.28427 0,-32.32488 1.01015,-4.04061 4.04061,-41.41626 4.04061,-41.41626 l -4.04061,-24.24366 c 0,0 -29.29442,-2.0203 -33.33503,-1.01015 -4.04061,1.01015 -43.43656,5.05076 -43.43656,5.05076 0,0 -23.23351,1.01015 -32.32489,1.01015 -9.09137,0 -16.16244,2.02031 -31.31472,-1.01015 -15.15229,-3.03046 -5.05077,-5.05076 -33.33504,-5.05076 -28.28427,0 -25.25381,0 -37.37564,1.01015 -12.12183,1.01015 -14.14214,9.09137 -14.14214,9.09137 z"
       id="path4209"
       inkscape:connector-curvature="0" />
    <path
       id="path4138"
       style="fill:#800080;fill-rule:evenodd;stroke:none;stroke-width:0.93792337px;stroke-linecap:butt;stroke-linejoin:miter;stroke-opacity:1"
       d="m 269.71569,283.90659 c 53.27987,-25.52511 125.68428,-39.89985 173.9377,-2.59437 43.65147,-63.49338 84.64853,-35.19354 23.86008,28.34934 9.0541,36.66442 23.9659,58.40817 25.36268,120.91037 11.44779,5.46354 25.80186,1.36169 41.37568,-8.03816 12.41205,-7.49151 35.61781,-32.23983 44.13757,-24.41977 17.34756,15.92286 -11.88215,11.1082 -14.72241,21.06216 -2.84027,9.95398 74.50206,3.07504 45.88798,45.89283 -14.99819,22.44312 -49.2943,-14.17655 -70.12079,-16.2177 -25.30456,-2.48004 -42.52029,23.11587 -42.52029,23.11587 2.88434,61.87417 42.36753,145.51703 -5.96209,192.78077 -14.10967,11.3506 -11.19443,19.51379 6.89754,20.60327 42.22959,2.49638 101.88071,-2.64965 119.16365,12.94052 20.78418,26.52426 4.79299,45.80963 -8.35949,39.64395 -9.65615,-4.52665 -35.69386,-25.9232 -48.86829,-29.32065 -23.23407,-5.99164 -26.14963,34.12112 -43.55443,-8.05895 l -61.95194,-7.83408 -160.11831,1.89489 c -30.14534,3.51253 -16.30938,23.72265 -70.94349,34.52838 -54.6341,10.80573 -129.32188,-31.38334 -6.08024,-34.51179 l 47.02746,-0.86039 C 226.62093,668.09734 220.31297,565.59151 227.83933,486.17883 216.81672,467.19906 227.21546,448.14784 200.68698,437.72594 102.82237,490.29212 53.524725,448.28927 83.756094,417.55677 c 8.126119,-8.26083 52.755736,-2.94375 52.755736,-2.94375 -20.19605,-29.82685 -40.323502,-33.82548 -8.72425,-24.35935 10.25354,33.85335 61.57799,28.12966 90.5773,29.60397 L 239.2383,300.88659 c -41.7325,-43.99403 -20.89056,-102.27465 30.47739,-16.98 z m 4.68175,-15.20739 c 56.80621,-27.2145 117.24839,-44.82532 168.69547,-5.05077 46.54056,-67.6957 103.19755,-22.29161 38.3858,45.45687 9.65335,39.09106 21.74429,39.42709 23.23351,106.06601 12.20547,5.82515 27.50956,1.45182 44.11414,-8.57016 13.23355,-7.98734 28.0749,-22.95021 37.15854,-14.61258 18.49571,16.97672 -5.05297,15.65119 -8.08122,26.26396 -3.02825,10.61278 69.53271,-5.86016 38.26324,49.69182 -14.11703,25.07969 -40.37188,-2.16829 -62.57678,-4.34454 -26.97935,-2.64418 -46.85762,7.1299 -46.85762,7.1299 3.35892,72.05479 66.77803,164.12965 -11.11167,209.10157 43.97486,5.33469 116.39281,-26.15266 139.15955,32.20233 22.15978,28.27977 -24.59066,48.07998 -38.61364,41.50623 -10.29524,-4.82625 -8.35539,-26.87737 -22.40177,-30.49968 -24.77182,-6.3882 -47.68093,35.61787 -66.23768,-9.3539 l -46.25165,-7.59101 -170.71578,2.0203 c -32.14051,3.74501 -17.38882,25.29274 -75.63889,36.81365 -58.25007,11.52091 -155.396979,-54.78416 -23.99856,-58.11966 l 50.13998,-0.91734 C 201.03426,658.51711 211.82471,570.55061 219.8492,485.88199 208.09706,465.64604 216.1378,464.37293 187.85353,453.26125 83.511729,509.30653 33.997549,436.34597 66.229788,403.57943 c 8.663948,-8.80757 56.247382,6.00015 56.247382,6.00015 -21.53272,-31.80095 -23.191735,-36.82579 10.49892,-26.73315 10.93217,36.09395 45.85296,30.753 76.77159,32.32489 L 225.91012,302.03423 C 181.41555,255.12845 219.6297,177.7593 274.39744,268.6992 Z"
       inkscape:connector-curvature="0"
       inkscape:export-filename="/home/erik/PhpstormProjects/steppy/img/patterns_bg.png"
       inkscape:export-xdpi="24.65"
       inkscape:export-ydpi="24.65" />
    <path
       style="fill:#800080;fill-rule:evenodd;stroke:none;stroke-width:1px;stroke-linecap:butt;stroke-linejoin:miter;stroke-opacity:1"
       d="m 318.84415,308.09515 c -11.68826,-1.01465 -24.71056,9.55082 -26.26396,19.19289 -1.5534,9.64207 10.10151,16.16244 15.15228,21.21321 5.05077,5.05077 19.42881,5.16033 26.26397,2.0203 6.83516,-3.14003 11.11168,-9.09137 11.11168,-15.15229 0,-6.06092 -14.57571,-26.25946 -26.26397,-27.27411 z"
       id="path4141"
       inkscape:connector-curvature="0"
       sodipodi:nodetypes="zzzzzz" />
    <path
       style="fill:#800080;fill-rule:evenodd;stroke:none;stroke-width:1px;stroke-linecap:butt;stroke-linejoin:miter;stroke-opacity:1"
       d="m 382.48376,299.00377 c -3.03045,4.04061 -17.17259,8.08122 -10.10152,22.22336 7.07107,14.14214 24.24366,28.28427 31.31473,24.24366 7.07107,-4.04061 15.15228,-7.07106 19.19289,-13.13198 4.04061,-6.06092 17.1726,-5.05077 8.08122,-17.1726 -9.09138,-12.12183 -12.12182,-16.16243 -22.22335,-18.18274 -10.10153,-2.02031 -23.23352,-2.02031 -26.26397,2.0203 z"
       id="path4143"
       inkscape:connector-curvature="0"
       sodipodi:nodetypes="zzzzzzz" />
    <path
       style="opacity:1;fill:#800080;fill-opacity:1;stroke:none;stroke-width:1;stroke-linejoin:miter;stroke-miterlimit:4;stroke-dasharray:none;stroke-dashoffset:0;stroke-opacity:1"
       id="path4147"
       d="m 220.59202,379.05286 c 2.65387,-2.57182 5.21131,-5.25977 8.22377,-7.41464 4.75164,-2.70338 9.45833,-5.48734 14.25492,-8.11014 2.45041,-1.3399 5.20976,-0.4975 7.57852,0.47774 2.1909,1.13779 4.0264,2.7963 5.66777,4.61577 0,0 -12.76263,7.73918 -12.76263,7.73918 l 0,0 c -1.50583,-1.63625 -3.19063,-3.13137 -5.25449,-4.02456 -1.89724,-0.59161 -3.49299,-0.81863 -5.41959,-0.13819 -0.4837,0.17084 -1.84904,0.88134 -1.41093,0.61449 3.6877,-2.24612 7.44697,-4.37258 11.17045,-6.55888 -3.15364,1.82184 -5.64665,4.4697 -8.18298,7.05623 0,0 -13.86481,5.743 -13.86481,5.743 z"
       inkscape:connector-curvature="0" />
    <path
       style="opacity:1;fill:#800080;fill-opacity:1;stroke:none;stroke-width:1;stroke-linejoin:miter;stroke-miterlimit:4;stroke-dasharray:none;stroke-dashoffset:0;stroke-opacity:1"
       id="path4149"
       d="m 259.86564,383.11111 c 1.60199,-3.56611 2.88307,-7.24761 4.67705,-10.72792 3.87444,-6.41323 11.25013,-10.90912 18.63936,-12.07478 1.38128,-0.15517 2.73866,-0.21746 4.09921,0.0668 0,0 -12.24384,8.66472 -12.24384,8.66472 l 0,0 c -1.2637,-0.0323 -2.52995,0.037 -3.76047,0.35386 -4.62054,1.53673 -12.66356,6.95845 9.86366,-6.13764 0.36406,-0.21165 -0.72352,0.43703 -1.04809,0.70533 -1.00087,0.82739 -1.23379,1.28939 -2.02083,2.35436 -1.90989,3.3544 -3.25316,6.91896 -4.5799,10.53366 0,0 -13.62615,6.26161 -13.62615,6.26161 z"
       inkscape:connector-curvature="0" />
    <path
       style="opacity:1;fill:#800080;fill-opacity:1;stroke:none;stroke-width:1;stroke-linejoin:miter;stroke-miterlimit:4;stroke-dasharray:none;stroke-dashoffset:0;stroke-opacity:1"
       id="path4151"
       d="m 287.26209,379.05286 c 6.86692,-6.48123 15.26359,-11.1728 23.91336,-14.88827 3.73723,-1.4096 7.6999,-2.71465 11.7372,-2.65312 1.23384,-0.25288 2.33814,1.03062 3.52052,0.47627 0.41586,-0.19497 0.76217,-0.51517 1.16516,-0.73551 -26.65265,13.72777 -14.17535,9.69846 -11.25592,6.009 0,0 13.65786,-6.21009 13.65786,-6.21009 l 0,0 c -1.67721,5.88354 -8.02756,6.13226 -14.19543,9.514 -1.70719,0.54165 -3.2056,-0.29615 -4.94385,-0.2467 -3.87823,0.29363 -7.6385,1.44312 -11.19919,2.97707 -5.58094,2.61217 -5.24793,2.55273 7.83535,-4.95197 0.69213,-0.39701 -1.33257,0.8785 -1.98439,1.33871 -1.92345,1.35806 -1.56881,1.13722 -3.23356,2.61306 -0.38295,0.33949 -0.7682,0.67637 -1.1523,1.01455 0,0 -13.86481,5.743 -13.86481,5.743 z"
       inkscape:connector-curvature="0" />
    <path
       style="opacity:1;fill:#800080;fill-opacity:1;stroke:none;stroke-width:1;stroke-linejoin:miter;stroke-miterlimit:4;stroke-dasharray:none;stroke-dashoffset:0;stroke-opacity:1"
       id="path4153"
       d="m 346.92052,361.70541 c 3.04983,-1.07114 6.24388,-1.44543 9.41992,-0.86674 3.4374,1.14118 6.12302,3.64862 8.54548,6.24971 0.81345,0.97831 1.78314,1.73294 2.8433,2.41315 0,0 -12.61803,8.03419 -12.61803,8.03419 l 0,0 c -1.06806,-0.81319 -2.07904,-1.67516 -2.93534,-2.71985 -2.21936,-2.37871 -4.7141,-4.70057 -7.99598,-5.38459 -3.1092,-0.24549 -6.16526,0.31576 -9.05238,1.5063 0,0 11.79303,-9.23217 11.79303,-9.23217 z"
       inkscape:connector-curvature="0" />
    <path
       style="opacity:1;fill:#800080;fill-opacity:1;stroke:none;stroke-width:1;stroke-linejoin:miter;stroke-miterlimit:4;stroke-dasharray:none;stroke-dashoffset:0;stroke-opacity:1"
       id="path4155"
       d="m 371.83058,375.21043 c 0.45051,-3.06006 0.6704,-6.16175 1.73038,-9.08751 2.86219,-5.9511 10.43015,-11.20964 17.04099,-9.85117 2.33872,0.7524 3.91893,2.61192 5.53265,4.35452 1.62287,1.87894 3.38047,3.62229 5.58282,4.79701 1.91349,0.64332 3.84508,1.19662 5.5982,2.22492 1.77662,0.8318 3.5051,1.75903 5.28909,2.5757 0,0 -12.47055,8.2456 -12.47055,8.2456 l 0,0 c -1.78763,-0.86898 -3.56905,-1.75054 -5.3542,-2.62461 -1.82574,-0.87673 -3.80886,-1.3553 -5.61112,-2.28243 -2.21204,-1.39886 -4.07539,-3.20485 -5.7965,-5.17028 -1.40588,-1.47505 -2.80042,-3.17954 -4.9653,-3.37978 -5.03606,0.56904 -11.7477,6.67298 10.6767,-6.76198 0.69543,-0.41664 -3.73402,1.6539 -1.93152,1.66118 -1.47812,2.6296 -1.60046,5.72611 -1.85483,8.67614 0,0 -13.46681,6.62269 -13.46681,6.62269 z"
       inkscape:connector-curvature="0" />
    <path
       style="opacity:1;fill:#800080;fill-opacity:1;stroke:none;stroke-width:1;stroke-linejoin:miter;stroke-miterlimit:4;stroke-dasharray:none;stroke-dashoffset:0;stroke-opacity:1"
       id="path4157"
       d="m 409.49055,371.98179 c 5.7245,-5.16535 12.02432,-10.26631 19.88295,-10.09197 1.35156,0.34541 2.60946,0.8463 3.847,1.47691 0,0 -12.45945,8.24652 -12.45945,8.24652 l 0,0 c -1.11711,-0.46718 -2.22901,-0.90571 -3.46493,-0.90736 -0.85532,0.0602 -1.43514,0.0539 -2.26722,0.30398 -0.38537,0.11584 -1.46255,0.66271 -1.11878,0.45354 20.6371,-12.55669 13.441,-8.47159 9.44524,-5.22461 0,0 -13.86481,5.74299 -13.86481,5.74299 z"
       inkscape:connector-curvature="0" />
    <path
       style="opacity:1;fill:#800080;fill-opacity:1;stroke:none;stroke-width:1;stroke-linejoin:miter;stroke-miterlimit:4;stroke-dasharray:none;stroke-dashoffset:0;stroke-opacity:1"
       id="path4159"
       d="m 425.71983,368.93425 c 6.96293,-4.1233 14.13743,-9.76765 22.61075,-10.13443 3.85669,-0.25294 7.32837,1.28006 10.81762,2.66691 2.34735,1.05519 4.61122,2.23553 6.48816,4.01201 0.94738,0.77445 0.48928,0.35903 1.37116,1.24973 0,0 -12.7856,7.84563 -12.7856,7.84563 l 0,0 c -0.83125,-0.80087 -0.38917,-0.39619 -1.33125,-1.20855 -1.78639,-1.57939 -3.8993,-2.67884 -6.07423,-3.635 -3.35663,-1.34144 -6.7373,-2.5339 -10.42437,-2.09275 -7.34031,1.02124 -17.78837,7.86366 3.30055,-4.17071 0,0 -13.97279,5.46716 -13.97279,5.46716 z"
       inkscape:connector-curvature="0" />
    <path
       style="opacity:1;fill:#800080;fill-opacity:1;stroke:none;stroke-width:1;stroke-linejoin:miter;stroke-miterlimit:4;stroke-dasharray:none;stroke-dashoffset:0;stroke-opacity:1"
       id="path4161"
       d="m 458.92654,369.97635 c 4.88219,-5.96487 12.32451,-11.41475 20.19191,-11.52001 3.14682,0.67834 5.15669,3.00007 7.17312,5.30782 1.14774,1.34248 2.5532,2.26071 4.15284,2.95462 0,0 -12.48589,8.22414 -12.48589,8.22414 l 0,0 c -1.66501,-0.91429 -3.16914,-2.01389 -4.40597,-3.47814 -1.76322,-1.96457 -3.56032,-4.11186 -6.42047,-4.13432 -5.29516,0.93763 -11.0308,5.53483 8.69322,-6.03343 0.82447,-0.48356 -1.281,0.6714 -2.37251,1.73202 -0.29072,0.28249 -0.52009,0.62194 -0.78013,0.93291 0,0 -13.74612,6.01439 -13.74612,6.01439 z"
       inkscape:connector-curvature="0" />
    <path
       style="opacity:1;fill:#800080;fill-opacity:1;stroke:none;stroke-width:1;stroke-linejoin:miter;stroke-miterlimit:4;stroke-dasharray:none;stroke-dashoffset:0;stroke-opacity:1"
       id="path4163"
       d="m 494.71856,370.94624 c 2.08143,1.2805 4.35885,2.22751 6.38007,3.6115 0.46727,0.31996 2.59521,2.01045 3.04104,2.36209 2.9742,2.44034 5.24733,5.48843 7.01784,8.87839 1.55966,2.82548 2.44902,5.91707 2.96598,9.08392 0.18489,1.59238 0.1364,0.81449 0.15826,2.33286 0,0 -13.37921,6.73664 -13.37921,6.73664 l 0,0 c 0.16086,-1.31443 0.13902,-0.61554 0.0155,-2.09764 -0.38956,-3.03407 -1.15119,-5.99456 -2.65007,-8.68887 -1.66342,-3.20741 -3.82519,-6.08542 -6.67569,-8.34317 -2.87078,-2.21802 -5.90981,-4.16339 -9.2983,-5.51278 0,0 12.42456,-8.36294 12.42456,-8.36294 z"
       inkscape:connector-curvature="0" />
    <path
       style="opacity:1;fill:#800080;fill-opacity:1;stroke:none;stroke-width:1;stroke-linejoin:miter;stroke-miterlimit:4;stroke-dasharray:none;stroke-dashoffset:0;stroke-opacity:1"
       id="path4165"
       d="m 501.52417,423.76257 c 1.34315,4.28944 1.93872,8.72109 2.05814,13.19857 0.13248,3.3194 -0.0812,6.55626 -2.26933,9.17225 -12.90587,8.2815 -11.53467,8.54016 -22.71832,8.78774 -2.59913,0.0221 -1.31988,0.0142 -3.83776,0.0242 0,0 12.00181,-8.72629 12.00181,-8.72629 l 0,0 c 2.48723,-0.008 1.22187,0.005 3.79607,-0.0383 1.96355,-0.0656 3.96177,-0.0854 5.9025,-0.43213 4.97658,-0.88901 13.4726,-7.88151 -8.99182,6.01906 2.98981,-1.85206 2.93043,-4.86294 2.97739,-8.08194 -0.039,-4.32139 -0.48439,-8.62926 -2.02064,-12.70741 0,0 13.10196,-7.21582 13.10196,-7.21582 z"
       inkscape:connector-curvature="0" />
    <path
       style="opacity:1;fill:#800080;fill-opacity:1;stroke:none;stroke-width:1;stroke-linejoin:miter;stroke-miterlimit:4;stroke-dasharray:none;stroke-dashoffset:0;stroke-opacity:1"
       id="path4167"
       d="m 493.19758,463.36886 c 0.0296,4.38095 -0.33242,8.73052 -0.93052,13.06603 -1.76944,9.44452 -5.30704,8.10399 -15.97291,14.34156 -2.96086,-0.26662 -5.90819,-0.94199 -8.84107,-1.48841 -1.62009,-0.43338 -3.19075,-0.42444 -4.82729,-0.20056 0,0 12.01237,-8.83887 12.01237,-8.83887 l 0,0 c 1.67418,0.0187 3.32662,0.15136 4.96229,0.54741 1.751,0.31858 5.92873,1.3307 7.6169,0.95071 0.28564,-0.0643 0.54285,-0.21956 0.81428,-0.32934 -4.01513,2.39975 -8.01412,4.82671 -12.04539,7.19925 -0.26278,0.15465 0.51988,-0.32811 0.73593,-0.54326 1.32151,-1.31594 1.79785,-3.40778 2.27752,-5.12099 0.66296,-4.2321 1.15398,-8.49623 0.86168,-12.78839 0,0 13.33621,-6.79514 13.33621,-6.79514 z"
       inkscape:connector-curvature="0" />
    <path
       style="opacity:1;fill:#800080;fill-opacity:1;stroke:none;stroke-width:1;stroke-linejoin:miter;stroke-miterlimit:4;stroke-dasharray:none;stroke-dashoffset:0;stroke-opacity:1"
       id="path4169"
       d="m 460.41883,505.82649 c -2.94505,0.48979 -5.94349,0.98758 -8.93711,1.03474 -2.37656,0.0374 -3.8976,-0.22119 -6.269,-0.49609 -5.8544,-0.66044 -10.97711,-3.12459 -15.32819,-7.01788 -0.41713,-0.48199 -0.83982,-0.95922 -1.25138,-1.44597 -1.95733,-2.31487 -0.0533,-0.0732 -1.38346,-1.76043 -0.0606,-0.0768 -0.28886,-0.16325 -0.20366,-0.21134 13.45618,-7.59534 11.57799,-11.88394 13.5996,-6.2839 0.91036,2.95512 0.19023,5.98922 -0.59652,8.88068 -0.9717,3.05214 -2.40158,5.93555 -4.12603,8.62798 -3.84374,4.65687 -1.73005,2.28854 -14.36018,8.14567 -0.11922,0.0553 -2.05369,-1.21974 -2.06556,-1.22734 0,0 12.5292,-8.17319 12.5292,-8.17319 l 0,0 c 0.31272,0.14025 0.6067,0.33357 0.93816,0.42074 0.20441,0.0538 0.81361,-0.11877 0.63404,-0.007 -8.76203,5.44056 -16.64242,9.47467 -11.40473,6.78051 1.99385,-2.40678 3.31173,-5.32197 4.4613,-8.20598 0.76605,-2.54868 1.58662,-5.31161 0.85623,-7.96315 -1.94856,-5.33126 -0.5364,-0.83918 12.53599,-8.67106 0.0988,-0.0592 0.10838,0.20339 0.1649,0.30379 0.4462,0.79273 0.45683,0.82974 1.13829,1.6876 0.35475,0.44657 0.73455,0.87266 1.10183,1.30899 4.13062,3.73411 9.09026,5.82525 14.6584,6.34368 5.11772,0.41084 10.22935,0.20192 15.21006,-1.17187 0,0 -11.90218,9.10109 -11.90218,9.10109 z"
       inkscape:connector-curvature="0" />
    <path
       style="opacity:1;fill:#800080;fill-opacity:1;stroke:none;stroke-width:1;stroke-linejoin:miter;stroke-miterlimit:4;stroke-dasharray:none;stroke-dashoffset:0;stroke-opacity:1"
       id="path4171"
       d="m 394.64719,507.45948 c -3.58415,-0.0815 -7.1697,-0.0501 -10.7544,-0.0317 0,0 12.03845,-8.74645 12.03845,-8.74645 l 0,0 c 3.61378,0.0188 7.22832,0.0484 10.84158,-0.0317 0,0 -12.12563,8.80979 -12.12563,8.80979 z"
       inkscape:connector-curvature="0" />
    <path
       style="opacity:1;fill:#800080;fill-opacity:1;stroke:none;stroke-width:1;stroke-linejoin:miter;stroke-miterlimit:4;stroke-dasharray:none;stroke-dashoffset:0;stroke-opacity:1"
       id="path4173"
       d="m 374.06741,518.37704 c -6.61145,-1.09177 -12.86235,-3.41172 -19.01415,-5.9875 -2.48214,-1.05533 -4.84057,-2.36537 -7.22912,-3.61051 0,0 12.35949,-8.08128 12.35949,-8.08128 l 0,0 c 2.29517,1.26724 4.57848,2.56557 6.9928,3.59923 6.11224,2.56892 12.3789,4.86387 19.04508,5.41685 0,0 -12.1541,8.66321 -12.1541,8.66321 z"
       inkscape:connector-curvature="0" />
    <path
       style="opacity:1;fill:#800080;fill-opacity:1;stroke:none;stroke-width:1;stroke-linejoin:miter;stroke-miterlimit:4;stroke-dasharray:none;stroke-dashoffset:0;stroke-opacity:1"
       id="path4175"
       d="m 331.96395,515.34377 c -3.42727,-0.68327 -6.76596,-1.42648 -9.71386,-3.37252 -1.14969,-0.77548 -1.93146,-1.82661 -2.68049,-2.96199 0,0 12.91226,-7.55397 12.91226,-7.55397 l 0,0 c 0.63135,0.96742 1.302,1.82414 2.30424,2.44915 2.85864,1.7301 6.13012,2.34516 9.41105,2.78174 0,0 -12.2332,8.65759 -12.2332,8.65759 z"
       inkscape:connector-curvature="0" />
    <path
       style="opacity:1;fill:#800080;fill-opacity:1;stroke:none;stroke-width:1;stroke-linejoin:miter;stroke-miterlimit:4;stroke-dasharray:none;stroke-dashoffset:0;stroke-opacity:1"
       id="path4177"
       d="m 302.57384,526.06646 c -3.90266,-1.74176 -7.79732,-3.48235 -11.56946,-5.4961 -3.06293,-1.51331 -5.39204,-3.92047 -7.68821,-6.36916 0,0 12.7425,-7.75068 12.7425,-7.75068 l 0,0 c 2.17644,2.33011 4.39735,4.60062 7.31111,6.02808 3.7606,1.99091 7.63231,3.7564 11.62863,5.22492 0,0 -12.42457,8.36294 -12.42457,8.36294 z"
       inkscape:connector-curvature="0" />
    <path
       style="opacity:1;fill:#800080;fill-opacity:1;stroke:none;stroke-width:1;stroke-linejoin:miter;stroke-miterlimit:4;stroke-dasharray:none;stroke-dashoffset:0;stroke-opacity:1"
       id="path4179"
       d="m 258.30405,511.4218 c -1.8867,-2.01057 -3.57979,-4.05137 -4.81879,-6.52519 -1.17245,-2.45599 -1.91768,-5.06845 -2.73539,-7.65483 -0.43131,-1.53287 -0.19487,-0.81423 -0.69171,-2.16163 0,0 13.09014,-7.25914 13.09014,-7.25914 l 0,0 c 0.52987,1.45688 0.29616,0.70939 0.69634,2.24395 0.76807,2.51754 1.49402,5.04809 2.61146,7.4395 1.18312,2.32279 2.73531,4.28908 4.64366,6.07612 0,0 -12.79571,7.84122 -12.79571,7.84122 z"
       inkscape:connector-curvature="0" />
    <path
       style="opacity:1;fill:#800080;fill-opacity:1;stroke:none;stroke-width:1;stroke-linejoin:miter;stroke-miterlimit:4;stroke-dasharray:none;stroke-dashoffset:0;stroke-opacity:1"
       id="path4181"
       d="m 243.07317,499.35379 c -1.89716,-1.99534 -4.25623,-3.57628 -6.07189,-5.64921 -0.85929,-0.98105 -3.1262,-4.25554 -3.84063,-5.26792 -3.1093,-4.56399 -6.25811,-9.12093 -9.62768,-13.49859 -0.35064,-0.37607 -0.70127,-0.75214 -1.05191,-1.12821 0,0 12.73555,-7.69663 12.73555,-7.69663 l 0,0 c 0.35545,0.42303 0.71089,0.84606 1.06634,1.26909 3.20644,4.501 6.31166,9.07842 9.43599,13.63684 1.11978,1.53228 2.50413,3.53438 3.8203,4.94034 1.88148,2.00981 4.17458,3.64456 6.24517,5.44543 0,0 -12.71124,7.94886 -12.71124,7.94886 z"
       inkscape:connector-curvature="0" />
    <path
       style="opacity:1;fill:#800080;fill-opacity:1;stroke:none;stroke-width:1;stroke-linejoin:miter;stroke-miterlimit:4;stroke-dasharray:none;stroke-dashoffset:0;stroke-opacity:1"
       id="path4183"
       d="m 207.03072,463.28344 c -0.52686,-4.18342 -2.36126,-8.03745 -3.80802,-11.95529 -1.09414,-2.9789 -1.82658,-5.50681 -0.12489,-8.35667 0.21072,-0.245 0.42145,-0.49 0.63217,-0.735 0,0 13.82915,-5.78436 13.82915,-5.78436 l 0,0 c -0.22349,0.22035 -0.44698,0.4407 -0.67047,0.66106 -2.4331,2.0156 -1.62982,4.35264 -0.73989,7.05108 1.43536,4.02031 3.23518,7.93107 4.15542,12.11702 0,0 -13.27347,7.00216 -13.27347,7.00216 z"
       inkscape:connector-curvature="0" />
    <path
       style="opacity:1;fill:#800080;fill-opacity:1;stroke:none;stroke-width:1;stroke-linejoin:miter;stroke-miterlimit:4;stroke-dasharray:none;stroke-dashoffset:0;stroke-opacity:1"
       id="path4185"
       d="m 207.11104,441.85055 c 0.2158,-6.04836 0.19541,-12.10263 0.19537,-18.15401 0.10025,-5.02966 -0.64189,-10.29468 1.29176,-15.06449 0,0 13.57066,-6.11318 13.57066,-6.11318 l 0,0 c -0.27675,0.41739 -0.62648,0.79469 -0.83025,1.25215 -1.7273,3.87772 -0.75938,9.21941 -1.06842,13.32016 -4e-5,5.98498 -0.0231,11.97306 0.19537,17.95492 0,0 -13.35449,6.80445 -13.35449,6.80445 z"
       inkscape:connector-curvature="0" />
    <path
       style="opacity:1;fill:#800080;fill-opacity:1;stroke:none;stroke-width:1;stroke-linejoin:miter;stroke-miterlimit:4;stroke-dasharray:none;stroke-dashoffset:0;stroke-opacity:1"
       id="path4187"
       d="m 206.38971,399.98589 c 1.29374,-4.01116 3.16451,-7.78246 5.44689,-11.31462 2.07749,-2.93402 4.48338,-5.61989 7.42169,-7.70292 0,0 13.89289,-5.3933 13.89289,-5.3933 l 0,0 c -3.14718,1.74428 -5.55917,4.34603 -7.74384,7.1788 -2.39202,3.29303 -4.29623,6.94909 -5.51579,10.84107 0,0 -13.50184,6.39097 -13.50184,6.39097 z"
       inkscape:connector-curvature="0" />
    <path
       style="fill:#800080;fill-rule:evenodd;stroke:none;stroke-width:1px;stroke-linecap:butt;stroke-linejoin:miter;stroke-opacity:1"
       d="m 381.47361,396.98857 c 0,0 -39.39595,-10.10153 -45.45687,3.03046 -29.3972,18.24045 23.64133,47.24042 31.31473,42.4264 15.15229,-10.10152 22.22336,-7.07106 23.23351,-18.18274 1.01015,-11.11168 -9.09137,-27.27412 -9.09137,-27.27412 z"
       id="path4189"
       inkscape:connector-curvature="0"
       sodipodi:nodetypes="cccsc" />
    <path
       style="fill:#800080;fill-rule:evenodd;stroke:none;stroke-width:1px;stroke-linecap:butt;stroke-linejoin:miter;stroke-opacity:1"
       d="m 411.58147,426.70402 c -14.43881,37.04528 -103.5701,35.44491 -108.55309,10.3731 -11.23242,-56.51571 -22.17063,15.89381 -8.1972,31.30583 42.22107,46.56779 92.66489,22.10811 121.3179,10.37892 28.65302,-11.72919 9.71376,-88.69918 -4.56761,-52.05785 z"
       id="path4191"
       inkscape:connector-curvature="0"
       sodipodi:nodetypes="sssss" />
    <path
       style="fill:#ff5555;fill-rule:evenodd;stroke:none;stroke-width:0.71122527px;stroke-linecap:butt;stroke-linejoin:miter;stroke-opacity:1"
       d="m 425.07846,534.1723 c 19.20606,-14.09813 24.90327,10.11253 33.36483,11.29815 8.46157,1.18563 16.01437,-24.39591 31.38008,3.81913 15.3657,28.21505 -49.0593,40.34904 -49.0593,40.34904 0,0 -34.89165,-41.36821 -15.68561,-55.46632 z"
       id="path4230"
       inkscape:connector-curvature="0"
       sodipodi:nodetypes="zczcz" />
    <path
       sodipodi:nodetypes="zczcz"
       inkscape:connector-curvature="0"
       id="path4232"
       d="m 341.39208,627.89787 c -13.51264,-19.6224 -26.84295,1.37563 -35.22472,-0.2826 -8.38177,-1.65823 -7.11687,-28.30143 -30.89444,-6.69539 -23.77757,21.60604 33.09218,54.21961 33.09218,54.21961 0,0 46.5396,-27.61924 33.02698,-47.24162 z"
       style="fill:#ff5555;fill-rule:evenodd;stroke:none;stroke-width:0.71122527px;stroke-linecap:butt;stroke-linejoin:miter;stroke-opacity:1" />
    <path
       sodipodi:nodetypes="zczcz"
       inkscape:connector-curvature="0"
       id="path4236"
       d="m 266.67571,530.06889 c -5.66679,-8.22904 -11.25711,0.57689 -14.77217,-0.11852 -3.51506,-0.69541 -2.9846,-11.86875 -12.95618,-2.80784 -9.97159,9.06091 13.87784,22.73804 13.87784,22.73804 0,0 19.51728,-11.58266 13.85051,-19.81168 z"
       style="fill:#ff5555;fill-rule:evenodd;stroke:none;stroke-width:0.71122527px;stroke-linecap:butt;stroke-linejoin:miter;stroke-opacity:1" />
    <path
       sodipodi:nodetypes="zczcz"
       inkscape:connector-curvature="0"
       id="path4240"
       d="m 309.10211,285.61198 c -5.66679,-8.22904 -11.25711,0.57689 -14.77217,-0.11852 -3.51506,-0.69541 -2.9846,-11.86875 -12.95617,-2.80784 -9.97159,9.06091 13.87783,22.73804 13.87783,22.73804 0,0 19.51728,-11.58266 13.85051,-19.81168 z"
       style="fill:#ff5555;fill-rule:evenodd;stroke:none;stroke-width:0.71122527px;stroke-linecap:butt;stroke-linejoin:miter;stroke-opacity:1" />
    <path
       style="fill:#ff5555;fill-rule:evenodd;stroke:none;stroke-width:0.71122527px;stroke-linecap:butt;stroke-linejoin:miter;stroke-opacity:1"
       d="m 357.58943,273.49015 c -5.66679,-8.22904 -11.25711,0.57689 -14.77217,-0.11852 -3.51506,-0.69541 -2.9846,-11.86875 -12.95617,-2.80784 -9.97159,9.06091 13.87783,22.73804 13.87783,22.73804 0,0 19.51728,-11.58266 13.85051,-19.81168 z"
       id="path4242"
       inkscape:connector-curvature="0"
       sodipodi:nodetypes="zczcz" />
    <path
       sodipodi:nodetypes="zczcz"
       inkscape:connector-curvature="0"
       id="path4244"
       d="m 358.57382,546.82016 c -11.35486,-20.57187 -22.5565,1.44217 -29.59983,-0.29629 -7.04332,-1.73847 -5.98041,-29.67082 -25.961,-7.01935 -19.98064,22.65146 27.80779,56.84307 27.80779,56.84307 0,0 39.10787,-28.95562 27.75304,-49.52743 z"
       style="fill:#b380ff;fill-rule:evenodd;stroke:none;stroke-width:0.71122527px;stroke-linecap:butt;stroke-linejoin:miter;stroke-opacity:1" />
    <path
       style="fill:#b380ff;fill-rule:evenodd;stroke:none;stroke-width:0.71122527px;stroke-linecap:butt;stroke-linejoin:miter;stroke-opacity:1"
       d="m 381.00963,618.54099 c 11.35486,-20.57187 22.5565,1.44217 29.59983,-0.29629 7.04332,-1.73847 5.98041,-29.67082 25.961,-7.01935 19.98064,22.65146 -27.80779,56.84307 -27.80779,56.84307 0,0 -39.10787,-28.95562 -27.75304,-49.52743 z"
       id="path4246"
       inkscape:connector-curvature="0"
       sodipodi:nodetypes="zczcz" />
    <path
       style="fill:#b380ff;fill-rule:evenodd;stroke:none;stroke-width:0.71122527px;stroke-linecap:butt;stroke-linejoin:miter;stroke-opacity:1"
       d="m 389.65564,271.23894 c 3.66868,-6.64663 7.28785,0.46595 9.5635,-0.0957 2.27565,-0.56169 1.93223,-9.58644 8.38782,-2.26791 6.45561,7.31853 -8.9845,18.3656 -8.9845,18.3656 0,0 -12.63548,-9.35536 -8.96682,-16.00196 z"
       id="path4256"
       inkscape:connector-curvature="0"
       sodipodi:nodetypes="zczcz" />
    <path
       sodipodi:nodetypes="zczcz"
       inkscape:connector-curvature="0"
       id="path4258"
       d="m 242.17337,331.84809 c 3.66868,-6.64663 7.28785,0.46595 9.5635,-0.0957 2.27565,-0.56169 1.93223,-9.58644 8.38782,-2.26791 6.45561,7.31853 -8.9845,18.3656 -8.9845,18.3656 0,0 -12.63548,-9.35536 -8.96682,-16.00196 z"
       style="fill:#b380ff;fill-rule:evenodd;stroke:none;stroke-width:0.71122527px;stroke-linecap:butt;stroke-linejoin:miter;stroke-opacity:1" />
    <path
       style="fill:#ff5555;fill-rule:evenodd;stroke:none;stroke-width:0.71122527px;stroke-linecap:butt;stroke-linejoin:miter;stroke-opacity:1;fill-opacity:1"
       d="m 447.17337,333.27666 c 3.66868,-6.64663 7.28785,0.46595 9.5635,-0.0957 2.27565,-0.56169 1.93223,-9.58644 8.38782,-2.26791 6.45561,7.31853 -8.9845,18.3656 -8.9845,18.3656 0,0 -12.63548,-9.35536 -8.96682,-16.00196 z"
       id="path4288"
       inkscape:connector-curvature="0"
       sodipodi:nodetypes="zczcz" />
  </g>
</svg>
